# xmcd
#
# Track frame offsets:
#	187
#	22027
#	45200
#	65202
#	87830
#	109047
#	128652
#	150720
#	170070
#	186787
#
# Disc length: 2811 seconds
#
# Revision: 1
# Processed by: cddbd v1.4PL0 Copyright (c) Steve Scherf et al.
# Submitted via: EasyCDDAExtractor 5.0.7
#
DISCID=7f0af90a
DTITLE=Various Artist - Loi Cuoi Cho Em - Song Ca
DYEAR=1900
DGENRE=
TTITLE0=Hoa Mi - Huynh Thi - Dung khoc nghe em
TTITLE1=Huong Lan - Tuan Vu - Tinh bo vo
TTITLE2=Son Tuyen - Khanh Dung - Phut dau tien
TTITLE3=Phuong Mai - Duy Quang - Giot le sau
TTITLE4=Huong Lan - Tuan Vu - Chieu tay do
TTITLE5=Ngoc Lan - Huynh Thi - Duyen kiep
TTITLE6=Hoa Mi - Elvis Phuong - Thu Sai gon
TTITLE7=Son Tuyen - Khanh Dung - Ben thuong hai
TTITLE8=Ngoc Lan - Huynh Thi - Con moi dem nay
TTITLE9=Various Artist - Loi cuoi cho em
EXTD=
EXTT0=
EXTT1=
EXTT2=
EXTT3=
EXTT4=
EXTT5=
EXTT6=
EXTT7=
EXTT8=
EXTT9=
PLAYORDER=
